<?xml version="1.0" standalone="no"?>
<svg xmlns="http://www.w3.org/2000/svg" width="500" height="500"><defs><clipPath id="clip-path-dot-color"><path d="M 19 145v 14h 14v -7a 7 7, 0, 0, 0, -7 -7" transform="rotate(-90,26,152)"/><rect x="19" y="159" width="14" height="14" transform="rotate(0,26,166)"/><rect x="19" y="173" width="14" height="14" transform="rotate(0,26,180)"/><path d="M 19 187v 14h 7a 7 7, 0, 0, 0, 0 -14" transform="rotate(90,26,194)"/><path d="M 19 215v 14h 7a 7 7, 0, 0, 0, 0 -14" transform="rotate(-90,26,222)"/><rect x="19" y="229" width="14" height="14" transform="rotate(0,26,236)"/><rect x="19" y="243" width="14" height="14" transform="rotate(0,26,250)"/><rect x="19" y="257" width="14" height="14" transform="rotate(0,26,264)"/><rect x="19" y="271" width="14" height="14" transform="rotate(0,26,278)"/><rect x="19" y="285" width="14" height="14" transform="rotate(0,26,292)"/><path d="M 19 299v 14h 14v -7a 7 7, 0, 0, 0, -7 -7" transform="rotate(180,26,306)"/><path d="M 19 327v 14h 14v -7a 7 7, 0, 0, 0, -7 -7" transform="rotate(-90,26,334)"/><path d="M 19 341v 14h 14v -7a 7 7, 0, 0, 0, -7 -7" transform="rotate(180,26,348)"/><path d="M 33 131v 14h 14v -7a 7 7, 0, 0, 0, -7 -7" transform="rotate(-90,40,138)"/><rect x="33" y="145" width="14" height="14" transform="rotate(0,40,152)"/><rect x="33" y="159" width="14" height="14" transform="rotate(0,40,166)"/><path d="M 33 201v 14h 7a 7 7, 0, 0, 0, 0 -14" transform="rotate(180,40,208)"/><path d="M 33 229v 14h 7a 7 7, 0, 0, 0, 0 -14" transform="rotate(0,40,236)"/><path d="M 33 271v 14h 7a 7 7, 0, 0, 0, 0 -14" transform="rotate(0,40,278)"/><path d="M 33 299v 14h 7a 7 7, 0, 0, 0, 0 -14" transform="rotate(0,40,306)"/><rect x="33" y="327" width="14" height="14" transform="rotate(0,40,334)"/><rect x="33" y="341" width="14" height="14" transform="rotate(0,40,348)"/><path d="M 33 355v 14h 14v -7a 7 7, 0, 0, 0, -7 -7" transform="rotate(180,40,362)"/><path d="M 47 131v 14h 7a 7 7, 0, 0, 0, 0 -14" transform="rotate(0,54,138)"/><rect x="47" y="159" width="14" height="14" transform="rotate(0,54,166)"/><path d="M 47 173v 14h 14v -7a 7 7, 0, 0, 0, -7 -7" transform="rotate(180,54,180)"/><path d="M 47 201v 14h 14v -7a 7 7, 0, 0, 0, -7 -7" transform="rotate(0,54,208)"/><path d="M 47 215v 14h 7a 7 7, 0, 0, 0, 0 -14" transform="rotate(90,54,222)"/><path d="M 47 243v 14h 14v -7a 7 7, 0, 0, 0, -7 -7" transform="rotate(-90,54,250)"/><path d="M 47 257v 14h 7a 7 7, 0, 0, 0, 0 -14" transform="rotate(90,54,264)"/><path d="M 47 285v 14h 7a 7 7, 0, 0, 0, 0 -14" transform="rotate(180,54,292)"/><rect x="47" y="327" width="14" height="14" transform="rotate(0,54,334)"/><rect x="47" y="341" width="14" height="14" transform="rotate(0,54,348)"/><rect x="47" y="355" width="14" height="14" transform="rotate(0,54,362)"/><rect x="61" y="159" width="14" height="14" transform="rotate(0,68,166)"/><path d="M 61 173v 14h 14v -7a 7 7, 0, 0, 0, -7 -7" transform="rotate(90,68,180)"/><path d="M 61 229v 14h 14v -7a 7 7, 0, 0, 0, -7 -7" transform="rotate(-90,68,236)"/><rect x="61" y="243" width="14" height="14" transform="rotate(0,68,250)"/><path d="M 61 285v 14h 14v -7a 7 7, 0, 0, 0, -7 -7" transform="rotate(0,68,292)"/><path d="M 61 299v 14h 14v -7a 7 7, 0, 0, 0, -7 -7" transform="rotate(180,68,306)"/><path d="M 61 327v 14h 7a 7 7, 0, 0, 0, 0 -14" transform="rotate(0,68,334)"/><rect x="61" y="355" width="14" height="14" transform="rotate(0,68,362)"/><path d="M 75 159v 14h 7a 7 7, 0, 0, 0, 0 -14" transform="rotate(0,82,166)"/><circle cx="82" cy="208" r="7" transform="rotate(0,82,208)"/><path d="M 75 229v 14h 14v -7a 7 7, 0, 0, 0, -7 -7" transform="rotate(0,82,236)"/><rect x="75" y="243" width="14" height="14" transform="rotate(0,82,250)"/><path d="M 75 257v 14h 7a 7 7, 0, 0, 0, 0 -14" transform="rotate(90,82,264)"/><rect x="75" y="299" width="14" height="14" transform="rotate(0,82,306)"/><path d="M 75 355v 14h 7a 7 7, 0, 0, 0, 0 -14" transform="rotate(0,82,362)"/><path d="M 89 187v 14h 7a 7 7, 0, 0, 0, 0 -14" transform="rotate(180,96,194)"/><rect x="89" y="243" width="14" height="14" transform="rotate(0,96,250)"/><path d="M 89 285v 14h 7a 7 7, 0, 0, 0, 0 -14" transform="rotate(-90,96,292)"/><rect x="89" y="299" width="14" height="14" transform="rotate(0,96,306)"/><rect x="89" y="313" width="14" height="14" transform="rotate(0,96,320)"/><path d="M 89 327v 14h 14v -7a 7 7, 0, 0, 0, -7 -7" transform="rotate(180,96,334)"/><circle cx="110" cy="138" r="7" transform="rotate(0,110,138)"/><path d="M 103 159v 14h 7a 7 7, 0, 0, 0, 0 -14" transform="rotate(180,110,166)"/><path d="M 103 187v 14h 7a 7 7, 0, 0, 0, 0 -14" transform="rotate(0,110,194)"/><circle cx="110" cy="222" r="7" transform="rotate(0,110,222)"/><rect x="103" y="243" width="14" height="14" transform="rotate(0,110,250)"/><path d="M 103 271v 14h 7a 7 7, 0, 0, 0, 0 -14" transform="rotate(180,110,278)"/><rect x="103" y="299" width="14" height="14" transform="rotate(0,110,306)"/><path d="M 103 327v 14h 7a 7 7, 0, 0, 0, 0 -14" transform="rotate(0,110,334)"/><path d="M 103 355v 14h 7a 7 7, 0, 0, 0, 0 -14" transform="rotate(180,110,362)"/><path d="M 117 145v 14h 7a 7 7, 0, 0, 0, 0 -14" transform="rotate(-90,124,152)"/><rect x="117" y="159" width="14" height="14" transform="rotate(0,124,166)"/><path d="M 117 243v 14h 14v -7a 7 7, 0, 0, 0, -7 -7" transform="rotate(0,124,250)"/><rect x="117" y="257" width="14" height="14" transform="rotate(0,124,264)"/><rect x="117" y="271" width="14" height="14" transform="rotate(0,124,278)"/><path d="M 117 299v 14h 7a 7 7, 0, 0, 0, 0 -14" transform="rotate(0,124,306)"/><path d="M 117 341v 14h 14v -7a 7 7, 0, 0, 0, -7 -7" transform="rotate(-90,124,348)"/><rect x="117" y="355" width="14" height="14" transform="rotate(0,124,362)"/><path d="M 131 33v 14h 7a 7 7, 0, 0, 0, 0 -14" transform="rotate(-90,138,40)"/><rect x="131" y="47" width="14" height="14" transform="rotate(0,138,54)"/><path d="M 131 61v 14h 7a 7 7, 0, 0, 0, 0 -14" transform="rotate(90,138,68)"/><path d="M 131 89v 14h 14v -7a 7 7, 0, 0, 0, -7 -7" transform="rotate(-90,138,96)"/><path d="M 131 103v 14h 7a 7 7, 0, 0, 0, 0 -14" transform="rotate(90,138,110)"/><path d="M 131 159v 14h 7a 7 7, 0, 0, 0, 0 -14" transform="rotate(0,138,166)"/><path d="M 131 201v 14h 7a 7 7, 0, 0, 0, 0 -14" transform="rotate(-90,138,208)"/><path d="M 131 215v 14h 7a 7 7, 0, 0, 0, 0 -14" transform="rotate(90,138,222)"/><path d="M 131 257v 14h 14v -7a 7 7, 0, 0, 0, -7 -7" transform="rotate(0,138,264)"/><rect x="131" y="271" width="14" height="14" transform="rotate(0,138,278)"/><path d="M 131 285v 14h 14v -7a 7 7, 0, 0, 0, -7 -7" transform="rotate(180,138,292)"/><path d="M 131 313v 14h 7a 7 7, 0, 0, 0, 0 -14" transform="rotate(180,138,320)"/><rect x="131" y="341" width="14" height="14" transform="rotate(0,138,348)"/><path d="M 131 355v 14h 14v -7a 7 7, 0, 0, 0, -7 -7" transform="rotate(90,138,362)"/><path d="M 131 439v 14h 14v -7a 7 7, 0, 0, 0, -7 -7" transform="rotate(-90,138,446)"/><path d="M 131 453v 14h 7a 7 7, 0, 0, 0, 0 -14" transform="rotate(90,138,460)"/><circle cx="152" cy="26" r="7" transform="rotate(0,152,26)"/><path d="M 145 47v 14h 7a 7 7, 0, 0, 0, 0 -14" transform="rotate(0,152,54)"/><rect x="145" y="89" width="14" height="14" transform="rotate(0,152,96)"/><circle cx="152" cy="124" r="7" transform="rotate(0,152,124)"/><path d="M 145 173v 14h 7a 7 7, 0, 0, 0, 0 -14" transform="rotate(-90,152,180)"/><path d="M 145 187v 14h 14v -7a 7 7, 0, 0, 0, -7 -7" transform="rotate(180,152,194)"/><path d="M 145 229v 14h 7a 7 7, 0, 0, 0, 0 -14" transform="rotate(-90,152,236)"/><path d="M 145 243v 14h 14v -7a 7 7, 0, 0, 0, -7 -7" transform="rotate(180,152,250)"/><path d="M 145 271v 14h 14v -7a 7 7, 0, 0, 0, -7 -7" transform="rotate(0,152,278)"/><rect x="145" y="285" width="14" height="14" transform="rotate(0,152,292)"/><rect x="145" y="299" width="14" height="14" transform="rotate(0,152,306)"/><path d="M 145 313v 14h 14v -7a 7 7, 0, 0, 0, -7 -7" transform="rotate(90,152,320)"/><rect x="145" y="341" width="14" height="14" transform="rotate(0,152,348)"/><path d="M 145 383v 14h 7a 7 7, 0, 0, 0, 0 -14" transform="rotate(-90,152,390)"/><path d="M 145 397v 14h 14v -7a 7 7, 0, 0, 0, -7 -7" transform="rotate(180,152,404)"/><path d="M 145 425v 14h 14v -7a 7 7, 0, 0, 0, -7 -7" transform="rotate(-90,152,432)"/><path d="M 145 439v 14h 14v -7a 7 7, 0, 0, 0, -7 -7" transform="rotate(90,152,446)"/><path d="M 145 467v 14h 7a 7 7, 0, 0, 0, 0 -14" transform="rotate(180,152,474)"/><path d="M 159 33v 14h 7a 7 7, 0, 0, 0, 0 -14" transform="rotate(180,166,40)"/><path d="M 159 61v 14h 14v -7a 7 7, 0, 0, 0, -7 -7" transform="rotate(-90,166,68)"/><rect x="159" y="75" width="14" height="14" transform="rotate(0,166,82)"/><rect x="159" y="89" width="14" height="14" transform="rotate(0,166,96)"/><path d="M 159 103v 14h 7a 7 7, 0, 0, 0, 0 -14" transform="rotate(90,166,110)"/><path d="M 159 145v 14h 7a 7 7, 0, 0, 0, 0 -14" transform="rotate(180,166,152)"/><rect x="159" y="187" width="14" height="14" transform="rotate(0,166,194)"/><rect x="159" y="201" width="14" height="14" transform="rotate(0,166,208)"/><path d="M 159 215v 14h 7a 7 7, 0, 0, 0, 0 -14" transform="rotate(90,166,222)"/><path d="M 159 243v 14h 14v -7a 7 7, 0, 0, 0, -7 -7" transform="rotate(0,166,250)"/><path d="M 159 257v 14h 7a 7 7, 0, 0, 0, 0 -14" transform="rotate(90,166,264)"/><rect x="159" y="299" width="14" height="14" transform="rotate(0,166,306)"/><path d="M 159 327v 14h 7a 7 7, 0, 0, 0, 0 -14" transform="rotate(-90,166,334)"/><path d="M 159 341v 14h 14v -7a 7 7, 0, 0, 0, -7 -7" transform="rotate(90,166,348)"/><circle cx="166" cy="376" r="7" transform="rotate(0,166,376)"/><rect x="159" y="397" width="14" height="14" transform="rotate(0,166,404)"/><rect x="159" y="411" width="14" height="14" transform="rotate(0,166,418)"/><rect x="159" y="425" width="14" height="14" transform="rotate(0,166,432)"/><path d="M 159 453v 14h 7a 7 7, 0, 0, 0, 0 -14" transform="rotate(-90,166,460)"/><rect x="159" y="467" width="14" height="14" transform="rotate(0,166,474)"/><rect x="173" y="33" width="14" height="14" transform="rotate(0,180,40)"/><path d="M 173 61v 14h 14v -7a 7 7, 0, 0, 0, -7 -7" transform="rotate(0,180,68)"/><path d="M 173 75v 14h 14v -7a 7 7, 0, 0, 0, -7 -7" transform="rotate(90,180,82)"/><path d="M 173 117v 14h 14v -7a 7 7, 0, 0, 0, -7 -7" transform="rotate(-90,180,124)"/><rect x="173" y="131" width="14" height="14" transform="rotate(0,180,138)"/><rect x="173" y="145" width="14" height="14" transform="rotate(0,180,152)"/><rect x="173" y="159" width="14" height="14" transform="rotate(0,180,166)"/><rect x="173" y="173" width="14" height="14" transform="rotate(0,180,180)"/><rect x="173" y="187" width="14" height="14" transform="rotate(0,180,194)"/><path d="M 173 271v 14h 7a 7 7, 0, 0, 0, 0 -14" transform="rotate(180,180,278)"/><path d="M 173 299v 14h 7a 7 7, 0, 0, 0, 0 -14" transform="rotate(0,180,306)"/><path d="M 173 383v 14h 7a 7 7, 0, 0, 0, 0 -14" transform="rotate(-90,180,390)"/><rect x="173" y="397" width="14" height="14" transform="rotate(0,180,404)"/><rect x="173" y="425" width="14" height="14" transform="rotate(0,180,432)"/><path d="M 173 467v 14h 7a 7 7, 0, 0, 0, 0 -14" transform="rotate(0,180,474)"/><path d="M 187 33v 14h 14v -7a 7 7, 0, 0, 0, -7 -7" transform="rotate(0,194,40)"/><path d="M 187 47v 14h 7a 7 7, 0, 0, 0, 0 -14" transform="rotate(90,194,54)"/><path d="M 187 89v 14h 14v -7a 7 7, 0, 0, 0, -7 -7" transform="rotate(-90,194,96)"/><rect x="187" y="103" width="14" height="14" transform="rotate(0,194,110)"/><rect x="187" y="117" width="14" height="14" transform="rotate(0,194,124)"/><rect x="187" y="187" width="14" height="14" transform="rotate(0,194,194)"/><path d="M 187 201v 14h 14v -7a 7 7, 0, 0, 0, -7 -7" transform="rotate(180,194,208)"/><path d="M 187 243v 14h 7a 7 7, 0, 0, 0, 0 -14" transform="rotate(180,194,250)"/><rect x="187" y="271" width="14" height="14" transform="rotate(0,194,278)"/><path d="M 187 285v 14h 7a 7 7, 0, 0, 0, 0 -14" transform="rotate(90,194,292)"/><path d="M 187 327v 14h 7a 7 7, 0, 0, 0, 0 -14" transform="rotate(180,194,334)"/><path d="M 187 355v 14h 14v -7a 7 7, 0, 0, 0, -7 -7" transform="rotate(-90,194,362)"/><path d="M 187 369v 14h 7a 7 7, 0, 0, 0, 0 -14" transform="rotate(90,194,376)"/><rect x="187" y="397" width="14" height="14" transform="rotate(0,194,404)"/><rect x="187" y="411" width="14" height="14" transform="rotate(0,194,418)"/><path d="M 187 425v 14h 14v -7a 7 7, 0, 0, 0, -7 -7" transform="rotate(90,194,432)"/><path d="M 201 19v 14h 7a 7 7, 0, 0, 0, 0 -14" transform="rotate(180,208,26)"/><path d="M 201 61v 14h 7a 7 7, 0, 0, 0, 0 -14" transform="rotate(-90,208,68)"/><rect x="201" y="75" width="14" height="14" transform="rotate(0,208,82)"/><rect x="201" y="89" width="14" height="14" transform="rotate(0,208,96)"/><path d="M 201 117v 14h 14v -7a 7 7, 0, 0, 0, -7 -7" transform="rotate(0,208,124)"/><rect x="201" y="131" width="14" height="14" transform="rotate(0,208,138)"/><path d="M 201 145v 14h 7a 7 7, 0, 0, 0, 0 -14" transform="rotate(90,208,152)"/><path d="M 201 173v 14h 14v -7a 7 7, 0, 0, 0, -7 -7" transform="rotate(-90,208,180)"/><rect x="201" y="187" width="14" height="14" transform="rotate(0,208,194)"/><rect x="201" y="201" width="14" height="14" transform="rotate(0,208,208)"/><rect x="201" y="215" width="14" height="14" transform="rotate(0,208,222)"/><rect x="201" y="229" width="14" height="14" transform="rotate(0,208,236)"/><path d="M 201 243v 14h 14v -7a 7 7, 0, 0, 0, -7 -7" transform="rotate(90,208,250)"/><path d="M 201 271v 14h 7a 7 7, 0, 0, 0, 0 -14" transform="rotate(0,208,278)"/><path d="M 201 327v 14h 7a 7 7, 0, 0, 0, 0 -14" transform="rotate(0,208,334)"/><rect x="201" y="355" width="14" height="14" transform="rotate(0,208,362)"/><rect x="201" y="397" width="14" height="14" transform="rotate(0,208,404)"/><path d="M 201 439v 14h 7a 7 7, 0, 0, 0, 0 -14" transform="rotate(-90,208,446)"/><path d="M 201 453v 14h 7a 7 7, 0, 0, 0, 0 -14" transform="rotate(90,208,460)"/><rect x="215" y="19" width="14" height="14" transform="rotate(0,222,26)"/><path d="M 215 47v 14h 7a 7 7, 0, 0, 0, 0 -14" transform="rotate(180,222,54)"/><path d="M 215 75v 14h 14v -7a 7 7, 0, 0, 0, -7 -7" transform="rotate(0,222,82)"/><rect x="215" y="89" width="14" height="14" transform="rotate(0,222,96)"/><path d="M 215 103v 14h 7a 7 7, 0, 0, 0, 0 -14" transform="rotate(90,222,110)"/><path d="M 215 159v 14h 7a 7 7, 0, 0, 0, 0 -14" transform="rotate(-90,222,166)"/><path d="M 215 173v 14h 14v -7a 7 7, 0, 0, 0, -7 -7" transform="rotate(90,222,180)"/><path d="M 215 215v 14h 7a 7 7, 0, 0, 0, 0 -14" transform="rotate(0,222,222)"/><circle cx="222" cy="264" r="7" transform="rotate(0,222,264)"/><rect x="215" y="355" width="14" height="14" transform="rotate(0,222,362)"/><path d="M 215 383v 14h 14v -7a 7 7, 0, 0, 0, -7 -7" transform="rotate(-90,222,390)"/><rect x="215" y="397" width="14" height="14" transform="rotate(0,222,404)"/><rect x="229" y="19" width="14" height="14" transform="rotate(0,236,26)"/><rect x="229" y="33" width="14" height="14" transform="rotate(0,236,40)"/><rect x="229" y="47" width="14" height="14" transform="rotate(0,236,54)"/><path d="M 229 61v 14h 14v -7a 7 7, 0, 0, 0, -7 -7" transform="rotate(180,236,68)"/><path d="M 229 131v 14h 7a 7 7, 0, 0, 0, 0 -14" transform="rotate(-90,236,138)"/><path d="M 229 145v 14h 14v -7a 7 7, 0, 0, 0, -7 -7" transform="rotate(180,236,152)"/><path d="M 229 187v 14h 14v -7a 7 7, 0, 0, 0, -7 -7" transform="rotate(-90,236,194)"/><path d="M 229 201v 14h 7a 7 7, 0, 0, 0, 0 -14" transform="rotate(90,236,208)"/><path d="M 229 243v 14h 7a 7 7, 0, 0, 0, 0 -14" transform="rotate(180,236,250)"/><path d="M 229 285v 14h 14v -7a 7 7, 0, 0, 0, -7 -7" transform="rotate(-90,236,292)"/><rect x="229" y="299" width="14" height="14" transform="rotate(0,236,306)"/><rect x="229" y="313" width="14" height="14" transform="rotate(0,236,320)"/><path d="M 229 327v 14h 14v -7a 7 7, 0, 0, 0, -7 -7" transform="rotate(180,236,334)"/><rect x="229" y="355" width="14" height="14" transform="rotate(0,236,362)"/><rect x="229" y="369" width="14" height="14" transform="rotate(0,236,376)"/><rect x="229" y="383" width="14" height="14" transform="rotate(0,236,390)"/><path d="M 229 397v 14h 14v -7a 7 7, 0, 0, 0, -7 -7" transform="rotate(90,236,404)"/><path d="M 229 425v 14h 7a 7 7, 0, 0, 0, 0 -14" transform="rotate(-90,236,432)"/><path d="M 229 439v 14h 14v -7a 7 7, 0, 0, 0, -7 -7" transform="rotate(180,236,446)"/><path d="M 243 19v 14h 7a 7 7, 0, 0, 0, 0 -14" transform="rotate(0,250,26)"/><rect x="243" y="61" width="14" height="14" transform="rotate(0,250,68)"/><path d="M 243 103v 14h 7a 7 7, 0, 0, 0, 0 -14" transform="rotate(-90,250,110)"/><path d="M 243 117v 14h 7a 7 7, 0, 0, 0, 0 -14" transform="rotate(90,250,124)"/><path d="M 243 145v 14h 7a 7 7, 0, 0, 0, 0 -14" transform="rotate(0,250,152)"/><path d="M 243 187v 14h 7a 7 7, 0, 0, 0, 0 -14" transform="rotate(0,250,194)"/><path d="M 243 215v 14h 14v -7a 7 7, 0, 0, 0, -7 -7" transform="rotate(-90,250,222)"/><rect x="243" y="229" width="14" height="14" transform="rotate(0,250,236)"/><rect x="243" y="243" width="14" height="14" transform="rotate(0,250,250)"/><rect x="243" y="257" width="14" height="14" transform="rotate(0,250,264)"/><rect x="243" y="271" width="14" height="14" transform="rotate(0,250,278)"/><rect x="243" y="285" width="14" height="14" transform="rotate(0,250,292)"/><rect x="243" y="299" width="14" height="14" transform="rotate(0,250,306)"/><rect x="243" y="313" width="14" height="14" transform="rotate(0,250,320)"/><rect x="243" y="327" width="14" height="14" transform="rotate(0,250,334)"/><rect x="243" y="341" width="14" height="14" transform="rotate(0,250,348)"/><rect x="243" y="355" width="14" height="14" transform="rotate(0,250,362)"/><rect x="243" y="369" width="14" height="14" transform="rotate(0,250,376)"/><rect x="243" y="383" width="14" height="14" transform="rotate(0,250,390)"/><path d="M 243 411v 14h 7a 7 7, 0, 0, 0, 0 -14" transform="rotate(180,250,418)"/><path d="M 243 439v 14h 7a 7 7, 0, 0, 0, 0 -14" transform="rotate(0,250,446)"/><path d="M 257 47v 14h 7a 7 7, 0, 0, 0, 0 -14" transform="rotate(-90,264,54)"/><rect x="257" y="61" width="14" height="14" transform="rotate(0,264,68)"/><circle cx="264" cy="166" r="7" transform="rotate(0,264,166)"/><path d="M 257 215v 14h 7a 7 7, 0, 0, 0, 0 -14" transform="rotate(0,264,222)"/><path d="M 257 271v 14h 7a 7 7, 0, 0, 0, 0 -14" transform="rotate(0,264,278)"/><path d="M 257 327v 14h 14v -7a 7 7, 0, 0, 0, -7 -7" transform="rotate(0,264,334)"/><rect x="257" y="341" width="14" height="14" transform="rotate(0,264,348)"/><path d="M 257 355v 14h 14v -7a 7 7, 0, 0, 0, -7 -7" transform="rotate(90,264,362)"/><rect x="257" y="383" width="14" height="14" transform="rotate(0,264,390)"/><rect x="257" y="411" width="14" height="14" transform="rotate(0,264,418)"/><path d="M 257 425v 14h 7a 7 7, 0, 0, 0, 0 -14" transform="rotate(90,264,432)"/><path d="M 257 453v 14h 14v -7a 7 7, 0, 0, 0, -7 -7" transform="rotate(-90,264,460)"/><path d="M 257 467v 14h 7a 7 7, 0, 0, 0, 0 -14" transform="rotate(90,264,474)"/><circle cx="278" cy="40" r="7" transform="rotate(0,278,40)"/><path d="M 271 61v 14h 14v -7a 7 7, 0, 0, 0, -7 -7" transform="rotate(0,278,68)"/><path d="M 271 75v 14h 7a 7 7, 0, 0, 0, 0 -14" transform="rotate(90,278,82)"/><circle cx="278" cy="110" r="7" transform="rotate(0,278,110)"/><circle cx="278" cy="138" r="7" transform="rotate(0,278,138)"/><circle cx="278" cy="194" r="7" transform="rotate(0,278,194)"/><path d="M 271 229v 14h 7a 7 7, 0, 0, 0, 0 -14" transform="rotate(-90,278,236)"/><rect x="271" y="243" width="14" height="14" transform="rotate(0,278,250)"/><path d="M 271 257v 14h 14v -7a 7 7, 0, 0, 0, -7 -7" transform="rotate(180,278,264)"/><path d="M 271 369v 14h 14v -7a 7 7, 0, 0, 0, -7 -7" transform="rotate(-90,278,376)"/><rect x="271" y="383" width="14" height="14" transform="rotate(0,278,390)"/><rect x="271" y="397" width="14" height="14" transform="rotate(0,278,404)"/><rect x="271" y="411" width="14" height="14" transform="rotate(0,278,418)"/><path d="M 271 439v 14h 7a 7 7, 0, 0, 0, 0 -14" transform="rotate(-90,278,446)"/><rect x="271" y="453" width="14" height="14" transform="rotate(0,278,460)"/><circle cx="292" cy="26" r="7" transform="rotate(0,292,26)"/><circle cx="292" cy="166" r="7" transform="rotate(0,292,166)"/><circle cx="292" cy="208" r="7" transform="rotate(0,292,208)"/><path d="M 285 257v 14h 7a 7 7, 0, 0, 0, 0 -14" transform="rotate(0,292,264)"/><path d="M 285 341v 14h 7a 7 7, 0, 0, 0, 0 -14" transform="rotate(180,292,348)"/><rect x="285" y="369" width="14" height="14" transform="rotate(0,292,376)"/><path d="M 285 383v 14h 14v -7a 7 7, 0, 0, 0, -7 -7" transform="rotate(90,292,390)"/><path d="M 285 411v 14h 7a 7 7, 0, 0, 0, 0 -14" transform="rotate(0,292,418)"/><rect x="285" y="453" width="14" height="14" transform="rotate(0,292,460)"/><path d="M 299 33v 14h 14v -7a 7 7, 0, 0, 0, -7 -7" transform="rotate(-90,306,40)"/><path d="M 299 47v 14h 14v -7a 7 7, 0, 0, 0, -7 -7" transform="rotate(180,306,54)"/><path d="M 299 103v 14h 7a 7 7, 0, 0, 0, 0 -14" transform="rotate(-90,306,110)"/><rect x="299" y="117" width="14" height="14" transform="rotate(0,306,124)"/><rect x="299" y="131" width="14" height="14" transform="rotate(0,306,138)"/><path d="M 299 145v 14h 14v -7a 7 7, 0, 0, 0, -7 -7" transform="rotate(180,306,152)"/><path d="M 299 173v 14h 14v -7a 7 7, 0, 0, 0, -7 -7" transform="rotate(-90,306,180)"/><path d="M 299 187v 14h 7a 7 7, 0, 0, 0, 0 -14" transform="rotate(90,306,194)"/><circle cx="306" cy="222" r="7" transform="rotate(0,306,222)"/><path d="M 299 243v 14h 7a 7 7, 0, 0, 0, 0 -14" transform="rotate(180,306,250)"/><path d="M 299 271v 14h 14v -7a 7 7, 0, 0, 0, -7 -7" transform="rotate(-90,306,278)"/><rect x="299" y="285" width="14" height="14" transform="rotate(0,306,292)"/><rect x="299" y="299" width="14" height="14" transform="rotate(0,306,306)"/><path d="M 299 313v 14h 14v -7a 7 7, 0, 0, 0, -7 -7" transform="rotate(180,306,320)"/><rect x="299" y="341" width="14" height="14" transform="rotate(0,306,348)"/><path d="M 299 369v 14h 7a 7 7, 0, 0, 0, 0 -14" transform="rotate(0,306,376)"/><path d="M 299 425v 14h 14v -7a 7 7, 0, 0, 0, -7 -7" transform="rotate(-90,306,432)"/><rect x="299" y="439" width="14" height="14" transform="rotate(0,306,446)"/><rect x="299" y="453" width="14" height="14" transform="rotate(0,306,460)"/><path d="M 299 467v 14h 14v -7a 7 7, 0, 0, 0, -7 -7" transform="rotate(180,306,474)"/><path d="M 313 19v 14h 7a 7 7, 0, 0, 0, 0 -14" transform="rotate(-90,320,26)"/><rect x="313" y="33" width="14" height="14" transform="rotate(0,320,40)"/><path d="M 313 47v 14h 14v -7a 7 7, 0, 0, 0, -7 -7" transform="rotate(90,320,54)"/><rect x="313" y="117" width="14" height="14" transform="rotate(0,320,124)"/><path d="M 313 145v 14h 14v -7a 7 7, 0, 0, 0, -7 -7" transform="rotate(0,320,152)"/><rect x="313" y="159" width="14" height="14" transform="rotate(0,320,166)"/><rect x="313" y="173" width="14" height="14" transform="rotate(0,320,180)"/><path d="M 313 201v 14h 7a 7 7, 0, 0, 0, 0 -14" transform="rotate(180,320,208)"/><rect x="313" y="243" width="14" height="14" transform="rotate(0,320,250)"/><rect x="313" y="271" width="14" height="14" transform="rotate(0,320,278)"/><rect x="313" y="313" width="14" height="14" transform="rotate(0,320,320)"/><rect x="313" y="327" width="14" height="14" transform="rotate(0,320,334)"/><rect x="313" y="341" width="14" height="14" transform="rotate(0,320,348)"/><path d="M 313 383v 14h 7a 7 7, 0, 0, 0, 0 -14" transform="rotate(180,320,390)"/><path d="M 313 425v 14h 14v -7a 7 7, 0, 0, 0, -7 -7" transform="rotate(0,320,432)"/><path d="M 313 439v 14h 14v -7a 7 7, 0, 0, 0, -7 -7" transform="rotate(90,320,446)"/><rect x="313" y="467" width="14" height="14" transform="rotate(0,320,474)"/><path d="M 327 89v 14h 7a 7 7, 0, 0, 0, 0 -14" transform="rotate(-90,334,96)"/><rect x="327" y="103" width="14" height="14" transform="rotate(0,334,110)"/><path d="M 327 117v 14h 14v -7a 7 7, 0, 0, 0, -7 -7" transform="rotate(90,334,124)"/><rect x="327" y="173" width="14" height="14" transform="rotate(0,334,180)"/><rect x="327" y="187" width="14" height="14" transform="rotate(0,334,194)"/><path d="M 327 201v 14h 14v -7a 7 7, 0, 0, 0, -7 -7" transform="rotate(90,334,208)"/><rect x="327" y="243" width="14" height="14" transform="rotate(0,334,250)"/><rect x="327" y="257" width="14" height="14" transform="rotate(0,334,264)"/><rect x="327" y="271" width="14" height="14" transform="rotate(0,334,278)"/><path d="M 327 313v 14h 7a 7 7, 0, 0, 0, 0 -14" transform="rotate(0,334,320)"/><rect x="327" y="341" width="14" height="14" transform="rotate(0,334,348)"/><path d="M 327 355v 14h 14v -7a 7 7, 0, 0, 0, -7 -7" transform="rotate(180,334,362)"/><rect x="327" y="383" width="14" height="14" transform="rotate(0,334,390)"/><circle cx="334" cy="418" r="7" transform="rotate(0,334,418)"/><path d="M 327 453v 14h 14v -7a 7 7, 0, 0, 0, -7 -7" transform="rotate(-90,334,460)"/><path d="M 327 467v 14h 14v -7a 7 7, 0, 0, 0, -7 -7" transform="rotate(90,334,474)"/><circle cx="348" cy="40" r="7" transform="rotate(0,348,40)"/><circle cx="348" cy="68" r="7" transform="rotate(0,348,68)"/><circle cx="348" cy="152" r="7" transform="rotate(0,348,152)"/><rect x="341" y="173" width="14" height="14" transform="rotate(0,348,180)"/><rect x="341" y="187" width="14" height="14" transform="rotate(0,348,194)"/><path d="M 341 215v 14h 7a 7 7, 0, 0, 0, 0 -14" transform="rotate(-90,348,222)"/><rect x="341" y="229" width="14" height="14" transform="rotate(0,348,236)"/><rect x="341" y="243" width="14" height="14" transform="rotate(0,348,250)"/><rect x="341" y="257" width="14" height="14" transform="rotate(0,348,264)"/><rect x="341" y="271" width="14" height="14" transform="rotate(0,348,278)"/><path d="M 341 285v 14h 7a 7 7, 0, 0, 0, 0 -14" transform="rotate(90,348,292)"/><path d="M 341 341v 14h 14v -7a 7 7, 0, 0, 0, -7 -7" transform="rotate(0,348,348)"/><rect x="341" y="355" width="14" height="14" transform="rotate(0,348,362)"/><rect x="341" y="383" width="14" height="14" transform="rotate(0,348,390)"/><path d="M 341 397v 14h 14v -7a 7 7, 0, 0, 0, -7 -7" transform="rotate(180,348,404)"/><circle cx="348" cy="432" r="7" transform="rotate(0,348,432)"/><path d="M 341 453v 14h 7a 7 7, 0, 0, 0, 0 -14" transform="rotate(0,348,460)"/><circle cx="362" cy="26" r="7" transform="rotate(0,362,26)"/><path d="M 355 103v 14h 7a 7 7, 0, 0, 0, 0 -14" transform="rotate(-90,362,110)"/><path d="M 355 117v 14h 7a 7 7, 0, 0, 0, 0 -14" transform="rotate(90,362,124)"/><path d="M 355 159v 14h 7a 7 7, 0, 0, 0, 0 -14" transform="rotate(-90,362,166)"/><rect x="355" y="173" width="14" height="14" transform="rotate(0,362,180)"/><rect x="355" y="187" width="14" height="14" transform="rotate(0,362,194)"/><rect x="355" y="229" width="14" height="14" transform="rotate(0,362,236)"/><rect x="355" y="243" width="14" height="14" transform="rotate(0,362,250)"/><path d="M 355 271v 14h 7a 7 7, 0, 0, 0, 0 -14" transform="rotate(0,362,278)"/><circle cx="362" cy="334" r="7" transform="rotate(0,362,334)"/><rect x="355" y="355" width="14" height="14" transform="rotate(0,362,362)"/><rect x="355" y="369" width="14" height="14" transform="rotate(0,362,376)"/><rect x="355" y="383" width="14" height="14" transform="rotate(0,362,390)"/><rect x="355" y="397" width="14" height="14" transform="rotate(0,362,404)"/><path d="M 355 411v 14h 14v -7a 7 7, 0, 0, 0, -7 -7" transform="rotate(180,362,418)"/><circle cx="362" cy="474" r="7" transform="rotate(0,362,474)"/><path d="M 369 131v 14h 7a 7 7, 0, 0, 0, 0 -14" transform="rotate(-90,376,138)"/><path d="M 369 145v 14h 14v -7a 7 7, 0, 0, 0, -7 -7" transform="rotate(180,376,152)"/><path d="M 369 187v 14h 7a 7 7, 0, 0, 0, 0 -14" transform="rotate(0,376,194)"/><path d="M 369 215v 14h 7a 7 7, 0, 0, 0, 0 -14" transform="rotate(-90,376,222)"/><rect x="369" y="229" width="14" height="14" transform="rotate(0,376,236)"/><path d="M 369 243v 14h 14v -7a 7 7, 0, 0, 0, -7 -7" transform="rotate(90,376,250)"/><path d="M 369 285v 14h 7a 7 7, 0, 0, 0, 0 -14" transform="rotate(180,376,292)"/><circle cx="376" cy="320" r="7" transform="rotate(0,376,320)"/><path d="M 369 341v 14h 14v -7a 7 7, 0, 0, 0, -7 -7" transform="rotate(-90,376,348)"/><rect x="369" y="355" width="14" height="14" transform="rotate(0,376,362)"/><rect x="369" y="411" width="14" height="14" transform="rotate(0,376,418)"/><path d="M 369 425v 14h 7a 7 7, 0, 0, 0, 0 -14" transform="rotate(90,376,432)"/><path d="M 383 145v 14h 14v -7a 7 7, 0, 0, 0, -7 -7" transform="rotate(0,390,152)"/><rect x="383" y="159" width="14" height="14" transform="rotate(0,390,166)"/><path d="M 383 173v 14h 7a 7 7, 0, 0, 0, 0 -14" transform="rotate(90,390,180)"/><path d="M 383 201v 14h 7a 7 7, 0, 0, 0, 0 -14" transform="rotate(180,390,208)"/><path d="M 383 229v 14h 7a 7 7, 0, 0, 0, 0 -14" transform="rotate(0,390,236)"/><path d="M 383 271v 14h 14v -7a 7 7, 0, 0, 0, -7 -7" transform="rotate(-90,390,278)"/><rect x="383" y="285" width="14" height="14" transform="rotate(0,390,292)"/><path d="M 383 299v 14h 14v -7a 7 7, 0, 0, 0, -7 -7" transform="rotate(180,390,306)"/><path d="M 383 327v 14h 14v -7a 7 7, 0, 0, 0, -7 -7" transform="rotate(-90,390,334)"/><rect x="383" y="341" width="14" height="14" transform="rotate(0,390,348)"/><rect x="383" y="355" width="14" height="14" transform="rotate(0,390,362)"/><circle cx="390" cy="390" r="7" transform="rotate(0,390,390)"/><rect x="383" y="411" width="14" height="14" transform="rotate(0,390,418)"/><circle cx="404" cy="138" r="7" transform="rotate(0,404,138)"/><path d="M 397 159v 14h 7a 7 7, 0, 0, 0, 0 -14" transform="rotate(0,404,166)"/><path d="M 397 201v 14h 14v -7a 7 7, 0, 0, 0, -7 -7" transform="rotate(0,404,208)"/><path d="M 397 215v 14h 7a 7 7, 0, 0, 0, 0 -14" transform="rotate(90,404,222)"/><path d="M 397 243v 14h 14v -7a 7 7, 0, 0, 0, -7 -7" transform="rotate(-90,404,250)"/><rect x="397" y="257" width="14" height="14" transform="rotate(0,404,264)"/><rect x="397" y="271" width="14" height="14" transform="rotate(0,404,278)"/><rect x="397" y="299" width="14" height="14" transform="rotate(0,404,306)"/><rect x="397" y="313" width="14" height="14" transform="rotate(0,404,320)"/><rect x="397" y="327" width="14" height="14" transform="rotate(0,404,334)"/><rect x="397" y="341" width="14" height="14" transform="rotate(0,404,348)"/><rect x="397" y="355" width="14" height="14" transform="rotate(0,404,362)"/><rect x="397" y="411" width="14" height="14" transform="rotate(0,404,418)"/><rect x="397" y="425" width="14" height="14" transform="rotate(0,404,432)"/><rect x="397" y="439" width="14" height="14" transform="rotate(0,404,446)"/><rect x="397" y="453" width="14" height="14" transform="rotate(0,404,460)"/><path d="M 397 467v 14h 14v -7a 7 7, 0, 0, 0, -7 -7" transform="rotate(180,404,474)"/><circle cx="418" cy="152" r="7" transform="rotate(0,418,152)"/><rect x="411" y="243" width="14" height="14" transform="rotate(0,418,250)"/><rect x="411" y="257" width="14" height="14" transform="rotate(0,418,264)"/><rect x="411" y="271" width="14" height="14" transform="rotate(0,418,278)"/><rect x="411" y="299" width="14" height="14" transform="rotate(0,418,306)"/><path d="M 411 341v 14h 14v -7a 7 7, 0, 0, 0, -7 -7" transform="rotate(0,418,348)"/><rect x="411" y="355" width="14" height="14" transform="rotate(0,418,362)"/><rect x="411" y="369" width="14" height="14" transform="rotate(0,418,376)"/><rect x="411" y="383" width="14" height="14" transform="rotate(0,418,390)"/><rect x="411" y="397" width="14" height="14" transform="rotate(0,418,404)"/><path d="M 411 411v 14h 14v -7a 7 7, 0, 0, 0, -7 -7" transform="rotate(90,418,418)"/><path d="M 411 439v 14h 7a 7 7, 0, 0, 0, 0 -14" transform="rotate(0,418,446)"/><rect x="411" y="467" width="14" height="14" transform="rotate(0,418,474)"/><path d="M 425 131v 14h 7a 7 7, 0, 0, 0, 0 -14" transform="rotate(180,432,138)"/><path d="M 425 159v 14h 14v -7a 7 7, 0, 0, 0, -7 -7" transform="rotate(-90,432,166)"/><rect x="425" y="173" width="14" height="14" transform="rotate(0,432,180)"/><path d="M 425 187v 14h 14v -7a 7 7, 0, 0, 0, -7 -7" transform="rotate(180,432,194)"/><path d="M 425 229v 14h 7a 7 7, 0, 0, 0, 0 -14" transform="rotate(-90,432,236)"/><rect x="425" y="243" width="14" height="14" transform="rotate(0,432,250)"/><rect x="425" y="257" width="14" height="14" transform="rotate(0,432,264)"/><rect x="425" y="271" width="14" height="14" transform="rotate(0,432,278)"/><rect x="425" y="285" width="14" height="14" transform="rotate(0,432,292)"/><rect x="425" y="299" width="14" height="14" transform="rotate(0,432,306)"/><rect x="425" y="313" width="14" height="14" transform="rotate(0,432,320)"/><path d="M 425 327v 14h 7a 7 7, 0, 0, 0, 0 -14" transform="rotate(90,432,334)"/><rect x="425" y="397" width="14" height="14" transform="rotate(0,432,404)"/><path d="M 425 453v 14h 7a 7 7, 0, 0, 0, 0 -14" transform="rotate(-90,432,460)"/><path d="M 425 467v 14h 14v -7a 7 7, 0, 0, 0, -7 -7" transform="rotate(90,432,474)"/><rect x="439" y="131" width="14" height="14" transform="rotate(0,446,138)"/><rect x="439" y="145" width="14" height="14" transform="rotate(0,446,152)"/><rect x="439" y="159" width="14" height="14" transform="rotate(0,446,166)"/><path d="M 439 187v 14h 7a 7 7, 0, 0, 0, 0 -14" transform="rotate(0,446,194)"/><path d="M 439 271v 14h 14v -7a 7 7, 0, 0, 0, -7 -7" transform="rotate(0,446,278)"/><rect x="439" y="285" width="14" height="14" transform="rotate(0,446,292)"/><path d="M 439 383v 14h 7a 7 7, 0, 0, 0, 0 -14" transform="rotate(-90,446,390)"/><rect x="439" y="397" width="14" height="14" transform="rotate(0,446,404)"/><path d="M 453 131v 14h 7a 7 7, 0, 0, 0, 0 -14" transform="rotate(0,460,138)"/><path d="M 453 159v 14h 14v -7a 7 7, 0, 0, 0, -7 -7" transform="rotate(0,460,166)"/><path d="M 453 173v 14h 7a 7 7, 0, 0, 0, 0 -14" transform="rotate(90,460,180)"/><path d="M 453 215v 14h 7a 7 7, 0, 0, 0, 0 -14" transform="rotate(-90,460,222)"/><path d="M 453 229v 14h 14v -7a 7 7, 0, 0, 0, -7 -7" transform="rotate(180,460,236)"/><circle cx="460" cy="264" r="7" transform="rotate(0,460,264)"/><path d="M 453 285v 14h 7a 7 7, 0, 0, 0, 0 -14" transform="rotate(0,460,292)"/><path d="M 453 327v 14h 7a 7 7, 0, 0, 0, 0 -14" transform="rotate(-90,460,334)"/><rect x="453" y="341" width="14" height="14" transform="rotate(0,460,348)"/><rect x="453" y="355" width="14" height="14" transform="rotate(0,460,362)"/><path d="M 453 369v 14h 7a 7 7, 0, 0, 0, 0 -14" transform="rotate(90,460,376)"/><path d="M 453 397v 14h 14v -7a 7 7, 0, 0, 0, -7 -7" transform="rotate(0,460,404)"/><rect x="453" y="411" width="14" height="14" transform="rotate(0,460,418)"/><path d="M 453 425v 14h 7a 7 7, 0, 0, 0, 0 -14" transform="rotate(90,460,432)"/><circle cx="460" cy="474" r="7" transform="rotate(0,460,474)"/><circle cx="474" cy="152" r="7" transform="rotate(0,474,152)"/><circle cx="474" cy="208" r="7" transform="rotate(0,474,208)"/><path d="M 467 229v 14h 14v -7a 7 7, 0, 0, 0, -7 -7" transform="rotate(0,474,236)"/><path d="M 467 243v 14h 7a 7 7, 0, 0, 0, 0 -14" transform="rotate(90,474,250)"/><circle cx="474" cy="278" r="7" transform="rotate(0,474,278)"/><circle cx="474" cy="320" r="7" transform="rotate(0,474,320)"/><path d="M 467 341v 14h 7a 7 7, 0, 0, 0, 0 -14" transform="rotate(0,474,348)"/><circle cx="474" cy="390" r="7" transform="rotate(0,474,390)"/><path d="M 467 411v 14h 7a 7 7, 0, 0, 0, 0 -14" transform="rotate(0,474,418)"/><circle cx="474" cy="446" r="7" transform="rotate(0,474,446)"/></clipPath><clipPath id="clip-path-corners-square-color-0-0"><path clip-rule="evenodd" d="M 19 54v 28a 35 35, 0, 0, 0, 35 35h 28a 35 35, 0, 0, 0, 35 -35v -28a 35 35, 0, 0, 0, -35 -35h -28a 35 35, 0, 0, 0, -35 35M 54 33h 28a 21 21, 0, 0, 1, 21 21v 28a 21 21, 0, 0, 1, -21 21h -28a 21 21, 0, 0, 1, -21 -21v -28a 21 21, 0, 0, 1, 21 -21" transform="rotate(0,68,68)"/></clipPath><clipPath id="clip-path-corners-dot-color-0-0"><circle cx="68" cy="68" r="21" transform="rotate(0,68,68)"/></clipPath><clipPath id="clip-path-corners-square-color-1-0"><path clip-rule="evenodd" d="M 383 54v 28a 35 35, 0, 0, 0, 35 35h 28a 35 35, 0, 0, 0, 35 -35v -28a 35 35, 0, 0, 0, -35 -35h -28a 35 35, 0, 0, 0, -35 35M 418 33h 28a 21 21, 0, 0, 1, 21 21v 28a 21 21, 0, 0, 1, -21 21h -28a 21 21, 0, 0, 1, -21 -21v -28a 21 21, 0, 0, 1, 21 -21" transform="rotate(90,432,68)"/></clipPath><clipPath id="clip-path-corners-dot-color-1-0"><circle cx="432" cy="68" r="21" transform="rotate(90,432,68)"/></clipPath><clipPath id="clip-path-corners-square-color-0-1"><path clip-rule="evenodd" d="M 19 418v 28a 35 35, 0, 0, 0, 35 35h 28a 35 35, 0, 0, 0, 35 -35v -28a 35 35, 0, 0, 0, -35 -35h -28a 35 35, 0, 0, 0, -35 35M 54 397h 28a 21 21, 0, 0, 1, 21 21v 28a 21 21, 0, 0, 1, -21 21h -28a 21 21, 0, 0, 1, -21 -21v -28a 21 21, 0, 0, 1, 21 -21" transform="rotate(-90,68,432)"/></clipPath><clipPath id="clip-path-corners-dot-color-0-1"><circle cx="68" cy="432" r="21" transform="rotate(-90,68,432)"/></clipPath></defs><rect x="0" y="0" height="500" width="500" clip-path="url('#clip-path-background-color')" fill="#fff"/><rect x="0" y="0" height="500" width="500" clip-path="url('#clip-path-dot-color')" fill="#000000"/><rect x="19" y="19" height="98" width="98" clip-path="url('#clip-path-corners-square-color-0-0')" fill="#000000"/><rect x="47" y="47" height="42" width="42" clip-path="url('#clip-path-corners-dot-color-0-0')" fill="#000000"/><rect x="383" y="19" height="98" width="98" clip-path="url('#clip-path-corners-square-color-1-0')" fill="#000000"/><rect x="411" y="47" height="42" width="42" clip-path="url('#clip-path-corners-dot-color-1-0')" fill="#000000"/><rect x="19" y="383" height="98" width="98" clip-path="url('#clip-path-corners-square-color-0-1')" fill="#000000"/><rect x="47" y="411" height="42" width="42" clip-path="url('#clip-path-corners-dot-color-0-1')" fill="#000000"/></svg>